<svg xmlns="http://www.w3.org/2000/svg" width="16" height="21" viewBox="0 0 16 21">
  <path fill="#282828" d="M14.8571429,5.83333333 C15.5428571,5.83333333 16,6.3 16,7 L16,19.8333333 C16,20.5333333 15.5428571,21 14.8571429,21 L1.14285714,21 C0.457142857,21 0,20.5333333 0,19.8333333 L0,7 C0,6.3 0.457142857,5.83333333 1.14285714,5.83333333 L3.42857143,5.83333333 L3.42857143,4.66666667 C3.42857143,2.1 5.48571429,3.55271368e-15 8,3.55271368e-15 C10.5142857,3.55271368e-15 12.5714286,2.1 12.5714286,4.66666667 L12.5714286,5.83333333 L14.8571429,5.83333333 Z M5.71428571,4.66666667 L5.71428571,5.83333333 L10.2857143,5.83333333 L10.2857143,4.66666667 C10.2857143,3.38333333 9.25714286,2.33333333 8,2.33333333 C6.74285714,2.33333333 5.71428571,3.38333333 5.71428571,4.66666667 Z M10.2857143,5.83333333 L10.2857143,7.02380952 C10.2857143,7.6549921 10.7973889,8.16666667 11.4285714,8.16666667 C12.059754,8.16666667 12.5714286,7.6549921 12.5714286,7.02380952 L12.5714286,5.83333333 L10.2857143,5.83333333 Z M3.42857143,5.83333333 L3.42857143,7.02380952 C3.42857143,7.6549921 3.940246,8.16666667 4.57142857,8.16666667 C5.20261114,8.16666667 5.71428571,7.6549921 5.71428571,7.02380952 L5.71428571,5.83333333 L3.42857143,5.83333333 Z"/>
</svg>
