<svg
            height="30px"
            width="30px"
            viewBox="0 0 50 50"
            xmlns="http://www.w3.org/2000/svg"
          >
            <title>plant leaf</title>
            <g>
              <path
                d="M19.47461,40.41895c-5.27832,0-9.2168-2.19824-9.28613-2.23828 c-0.15137-0.08691-0.27832-0.21289-0.36621-0.36426c-0.07031-0.12012-6.8916-12.16113,3.4707-22.52344 c8.61426-8.61426,29.6543-12.13379,30.5459-12.28027c0.31152-0.05273,0.63184,0.0498,0.85938,0.27148 s0.33594,0.53809,0.29199,0.85254c-0.11914,0.86523-3.02734,21.31445-12.2832,30.57031 C28.2627,39.15137,23.48242,40.41895,19.47461,40.41895z"
                fill="#72C472"
              />
              <path
                d="M4,45c-0.25586,0-0.51172-0.09766-0.70703-0.29297c-0.39062-0.39062-0.39062-1.02344,0-1.41406l22-22 c0.39062-0.39062,1.02344-0.39062,1.41406,0s0.39062,1.02344,0,1.41406l-22,22C4.51172,44.90234,4.25586,45,4,45z"
                fill="#4DA34D"
              />
            </g>
          </svg>